<?xml version="1.0" encoding="UTF-8"?>
<svg width="28px" height="28px" viewBox="0 0 28 28" version="1.1" xmlns="http://www.w3.org/2000/svg" xmlns:xlink="http://www.w3.org/1999/xlink">
    <!-- Generator: Sketch 49.1 (51147) - http://www.bohemiancoding.com/sketch -->
    <title>icon-twitter</title>
    <desc>Created with Sketch.</desc>
    <defs></defs>
    <g id="Page-1" stroke="none" stroke-width="1" fill="none" fill-rule="evenodd">
        <g id="icon-twitter">
            <circle id="Oval" fill="#353535" cx="14" cy="14" r="14"></circle>
            <path d="M21.969,9.058 C21.383,9.318 20.752,9.494 20.091,9.573 C20.766,9.168 21.285,8.528 21.529,7.764 C20.897,8.139 20.197,8.411 19.453,8.557 C18.857,7.921 18.007,7.524 17.066,7.524 C15.26,7.524 13.796,8.988 13.796,10.794 C13.796,11.05 13.825,11.3 13.881,11.539 C11.163,11.404 8.753,10.102 7.14,8.124 C6.859,8.607 6.698,9.168 6.698,9.767 C6.698,10.901 7.275,11.902 8.153,12.489 C7.616,12.472 7.112,12.325 6.671,12.08 C6.671,12.094 6.671,12.107 6.671,12.121 C6.671,13.705 7.798,15.027 9.294,15.327 C9.02,15.402 8.731,15.442 8.433,15.442 C8.222,15.442 8.017,15.421 7.818,15.383 C8.234,16.682 9.442,17.628 10.873,17.654 C9.754,18.531 8.344,19.054 6.812,19.054 C6.548,19.054 6.288,19.039 6.032,19.008 C7.479,19.936 9.198,20.477 11.045,20.477 C17.06,20.477 20.349,15.494 20.349,11.173 C20.349,11.031 20.346,10.89 20.34,10.75 C20.976,10.29 21.531,9.714 21.969,9.058 Z" id="Shape" fill="#FFFFFF" fill-rule="nonzero"></path>
        </g>
    </g>
</svg>