<?xml version="1.0" encoding="UTF-8"?>
<svg width="28px" height="28px" viewBox="0 0 28 28" version="1.1" xmlns="http://www.w3.org/2000/svg" xmlns:xlink="http://www.w3.org/1999/xlink">
    <!-- Generator: Sketch 49.1 (51147) - http://www.bohemiancoding.com/sketch -->
    <title>icon-github</title>
    <desc>Created with Sketch.</desc>
    <defs></defs>
    <g id="Page-1" stroke="none" stroke-width="1" fill="none" fill-rule="evenodd">
        <g id="icon-github" fill="#353535" fill-rule="nonzero">
            <path d="M13.999098,0 C6.26892597,0 0,6.42620699 0,14.3563018 C0,20.697418 4.01030861,26.0784877 9.57386766,27.976383 C10.2738226,28.1077188 10.5299916,27.6656165 10.5299916,27.2845576 C10.5299916,26.9441943 10.5173636,26.0414917 10.5119515,24.8428209 C6.61709941,25.7103774 5.79627601,22.9190284 5.79627601,22.9190284 C5.15946137,21.2616071 4.24122157,20.8195048 4.24122157,20.8195048 C2.9693963,19.9297508 4.33683397,19.946399 4.33683397,19.946399 C5.74215579,20.048138 6.48179885,21.4262394 6.48179885,21.4262394 C7.73017202,23.6201028 9.75787643,22.9856212 10.5552477,22.6193607 C10.6833323,21.6907608 11.0441338,21.0599789 11.4446234,20.7011176 C8.33631854,20.3367069 5.069261,19.1065895 5.069261,13.6052828 C5.069261,12.0385018 5.61407126,10.75659 6.51066297,9.75399812 C6.36634237,9.38958742 5.88467238,7.93009481 6.64776754,5.95450786 C6.64776754,5.95450786 7.82398041,5.56789955 10.4975195,7.42694907 C11.6142001,7.10693358 12.8102571,6.94785074 14.000902,6.94230134 C15.1897429,6.94785074 16.3876039,7.10693358 17.5060885,7.42509927 C20.1796276,5.56789955 21.3522325,5.95265806 21.3522325,5.95265806 C22.1153276,7.92824501 21.6354616,9.38773762 21.491141,9.75214832 C22.3877327,10.7547402 22.930739,12.036652 22.930739,13.603433 C22.930739,19.1176883 19.6582694,20.3311575 16.5391405,20.6863192 C17.0424586,21.1302713 17.4898525,22.0052269 17.4898525,23.3444825 C17.4898525,25.2627256 17.4718124,26.8110087 17.4718124,27.2827078 C17.4718124,27.6674663 17.7243734,28.1132682 18.4351524,27.9726834 C23.9932994,26.0710885 28,20.6937184 28,14.354452 C28,6.42805679 21.731074,0 13.999098,0 Z" id="Shape"></path>
        </g>
    </g>
</svg>